# xmcd CD database file generated by OrangeCD 4.3
#
# Track frame offsets:
#	150
#	16980
#	30367
#	46557
#	62475
#	85172
#	95545
#	107762
#	124730
#	136012
#
# Disc length: 1980 seconds
#
# Revision: 0
# Processed by: cddbd v1.4PL0 Copyright (c) Steve Scherf et al.
# Submitted via: OrangeCD 4.3
#
DISCID=6c07ba0a
DTITLE=Various Blues Artists - Raw Blues Volume Two
DYEAR=1900
DGENRE=
TTITLE0=John Lee Hooker - My First Wife Left Me
TTITLE1=Lightning Slim - That's all right
TTITLE2=Jimmy Reed - Cold and Lonesome
TTITLE3=Little Walter and Otis Rush - Walter's Blues
TTITLE4=Lightnin Hopkins - I'll Be Gone
TTITLE5=Mike Bloomfield - RX for the Blues
TTITLE6=Lightning Slim - Rooster Blues
TTITLE7=Bo Didley - Mona (I need you Baby)
TTITLE8=John Lee Hooker - Boom Boom
TTITLE9=Ray Charles - Rocking chair blues
EXTD=
EXTT0=
EXTT1=
EXTT2=
EXTT3=
EXTT4=
EXTT5=
EXTT6=
EXTT7=
EXTT8=
EXTT9=
PLAYORDER=
